<svg width="29" height="56" viewBox="0 0 29 56" fill="none" xmlns="http://www.w3.org/2000/svg">
<path d="M27.9285 25.6984C30.802 18.0114 24.8514 13.8036 20.907 11.0381C20.1528 10.4731 19.3986 9.94528 18.7877 9.46205C17.6959 8.55396 16.8916 7.35591 16.4705 6.01035C16.0493 4.66479 16.029 3.22833 16.412 1.87173C16.4513 1.72979 16.4503 1.57992 16.4091 1.4385C16.3679 1.29707 16.2881 1.16952 16.1784 1.06978C16.0686 0.970041 15.9332 0.901949 15.7869 0.872938C15.6405 0.843928 15.4889 0.855115 15.3486 0.905279C14.0202 1.42333 12.7851 2.14878 11.6907 3.05377C10.6392 3.85289 9.78727 4.87876 9.20028 6.05272C8.6133 7.22667 8.30682 8.51753 8.30438 9.82633C7.56064 10.4043 6.90308 11.0825 6.35102 11.841C5.33683 13.2057 4.82834 14.872 4.9105 16.5617C3.70244 17.6555 2.8027 19.0393 2.29908 20.5781C1.79546 22.1169 1.70516 23.7581 2.03702 25.3415C1.55642 25.6278 1.18442 26.0616 0.978136 26.5764C0.771855 27.0912 0.74269 27.6585 0.895139 28.1912C1.04759 28.7239 1.37323 29.1925 1.82203 29.5252C2.27082 29.8578 2.81798 30.036 3.37949 30.0325H3.43228V34.4038C3.43228 34.8474 3.61106 35.2729 3.9293 35.5866C4.24753 35.9003 4.67917 36.0765 5.12922 36.0765H6.44906L8.59853 54.439C8.64321 54.8478 8.83972 55.2258 9.15022 55.5003C9.46073 55.7748 9.86327 55.9264 10.2804 55.9258H19.2251C19.6426 55.9249 20.0452 55.7731 20.3566 55.499C20.668 55.2249 20.8665 54.8478 20.9145 54.439L23.064 36.0765H24.3838C24.8339 36.0765 25.2655 35.9003 25.5837 35.5866C25.902 35.2729 26.0808 34.8474 26.0808 34.4038V30.0325H26.1336C26.8156 30.0325 27.4698 29.7654 27.9521 29.29C28.4344 28.8146 28.7053 28.1698 28.7053 27.4974C28.7088 27.1619 28.6438 26.8291 28.5142 26.5187C28.3847 26.2084 28.1932 25.9269 27.9511 25.6909L27.9285 25.6984ZM8.56835 11.7518C9.65439 15.7737 13.8477 17.3572 17.6715 18.7697C17.7743 18.8321 17.8898 18.8713 18.0097 18.8848C18.1297 18.8982 18.2511 18.8854 18.3655 18.8473C18.4798 18.8092 18.5843 18.7468 18.6714 18.6644C18.7585 18.5821 18.8262 18.4818 18.8696 18.3707C18.9129 18.2597 18.931 18.1406 18.9224 18.0219C18.9138 17.9032 18.8788 17.7879 18.8198 17.684C18.7609 17.5802 18.6795 17.4904 18.5814 17.421C18.4833 17.3517 18.3709 17.3045 18.2522 17.2828C14.1343 15.744 10.2502 14.3092 9.95607 10.198C9.88714 9.06795 10.1023 7.93856 10.5826 6.91014C11.0628 5.88172 11.7932 4.98607 12.7089 4.30271C13.2826 3.8322 13.8985 3.41416 14.5491 3.05377C14.5072 3.56838 14.5072 4.08547 14.5491 4.60008C14.6364 5.77815 14.9631 6.92689 15.5099 7.97797C16.0567 9.02905 16.8123 9.96101 17.7318 10.7184C18.3578 11.2463 19.1346 11.789 19.9944 12.3688C21.9779 13.7739 24.233 15.3425 25.6659 17.4687C26.4305 18.5591 26.9062 19.8207 27.0498 21.1386C27.1934 22.4565 27.0002 23.7889 26.488 25.0144H26.1713H23.1545C16.2838 25.0144 8.38735 23.141 6.82616 17.8924C6.51646 16.8127 6.51899 15.6691 6.83348 14.5906C7.14798 13.5122 7.76192 12.5418 8.60605 11.789L8.56835 11.7518ZM14.7527 37.095L17.2718 39.578L14.7527 42.0611L12.2337 39.5632L14.7527 37.095ZM20.5299 43.6148L18.4483 45.6667L15.9293 43.1836L18.4483 40.708L20.6355 42.8565L20.5299 43.6148ZM14.7527 49.3094L12.2337 46.8264L14.7527 44.3433L17.2718 46.8264L14.7527 49.3094ZM13.5988 43.1985L11.0798 45.6815L8.98315 43.6148L8.89265 42.8714L11.0798 40.7229L13.5988 43.1985ZM9.91837 46.8264L9.41305 47.3245L9.28482 46.1945L9.91837 46.8264ZM9.65439 49.3689L11.0798 47.9638L13.8477 50.7145C13.8619 50.77 13.8795 50.8246 13.9005 50.878H9.82784L9.65439 49.3689ZM18.4332 47.9638L19.8587 49.3689L19.6852 50.8557H15.4994L18.4332 47.9638ZM20.0924 47.3245L19.5871 46.8264L20.2282 46.1945L20.0924 47.3245ZM20.8466 40.827L19.5871 39.5632L21.186 37.9871L20.8466 40.827ZM18.4257 38.4332L16.0349 36.084H20.8165L18.4257 38.4332ZM11.0723 38.4332L8.68148 36.084H13.4631L11.0723 38.4332ZM19.2176 54.3126H10.2804C10.2669 54.3111 10.2544 54.3051 10.2448 54.2956C10.2353 54.2862 10.2292 54.2738 10.2276 54.2606L10.0164 52.4764H19.4891L19.2855 54.2606C19.2836 54.275 19.2764 54.2883 19.2653 54.2979C19.2542 54.3075 19.2399 54.3127 19.2251 54.3126H19.2176ZM26.1336 28.4118H23.509C23.3949 28.401 23.2798 28.4139 23.171 28.4495C23.0623 28.4851 22.9623 28.5427 22.8775 28.6187C22.7927 28.6946 22.7249 28.7872 22.6786 28.8905C22.6322 28.9938 22.6082 29.1055 22.6082 29.2185C22.6082 29.3314 22.6322 29.4431 22.6786 29.5464C22.7249 29.6497 22.7927 29.7423 22.8775 29.8182C22.9623 29.8942 23.0623 29.9518 23.171 29.9874C23.2798 30.0231 23.3949 30.0359 23.509 30.0251H24.4441V34.3964C24.4423 34.4108 24.4352 34.4241 24.424 34.4337C24.4129 34.4433 24.3986 34.4485 24.3838 34.4484H5.09905C5.08427 34.4485 5.06996 34.4433 5.05884 34.4337C5.04772 34.4241 5.04057 34.4108 5.03872 34.3964V30.0251H19.9793C20.1828 30.0058 20.3717 29.9125 20.5091 29.7633C20.6466 29.6142 20.7227 29.42 20.7227 29.2185C20.7227 29.017 20.6466 28.8227 20.5091 28.6736C20.3717 28.5244 20.1828 28.4311 19.9793 28.4118H3.38703C3.25767 28.4233 3.1273 28.4081 3.00423 28.3672C2.88116 28.3263 2.76807 28.2605 2.6722 28.1742C2.57632 28.0878 2.49976 27.9827 2.44738 27.8655C2.39499 27.7484 2.36792 27.6218 2.36792 27.4937C2.36792 27.3657 2.39499 27.2391 2.44738 27.1219C2.49976 27.0048 2.57632 26.8996 2.6722 26.8133C2.76807 26.7269 2.88116 26.6612 3.00423 26.6202C3.1273 26.5793 3.25767 26.5641 3.38703 26.5756H5.09905C5.30252 26.5563 5.49141 26.463 5.62886 26.3139C5.76631 26.1647 5.84247 25.9705 5.84247 25.769C5.84247 25.5675 5.76631 25.3732 5.62886 25.2241C5.49141 25.075 5.30252 24.9817 5.09905 24.9624H3.59066C3.37462 23.8312 3.40972 22.6674 3.69354 21.5509C3.97736 20.4344 4.50317 19.3917 5.2348 18.4946C5.76273 20.1153 7.12029 22.3307 10.5142 24.0926C13.7044 25.7355 17.9279 26.5756 23.064 26.5756H26.0808C26.2101 26.5641 26.3405 26.5793 26.4636 26.6202C26.5866 26.6612 26.6997 26.7269 26.7956 26.8133C26.8914 26.8996 26.968 27.0048 27.0204 27.1219C27.0728 27.2391 27.0998 27.3657 27.0998 27.4937C27.0998 27.6218 27.0728 27.7484 27.0204 27.8655C26.968 27.9827 26.8914 28.0878 26.7956 28.1742C26.6997 28.2605 26.5866 28.3263 26.4636 28.3672C26.3405 28.4081 26.2101 28.4233 26.0808 28.4118H26.1336Z" fill="#F8D24E"/>
</svg>
